<?xml version="1.0" encoding="UTF-8" standalone="no"?>
<svg width="26px" height="26px" viewBox="0 0 26 26" version="1.1" xmlns="http://www.w3.org/2000/svg" xmlns:xlink="http://www.w3.org/1999/xlink">
    <!-- Generator: Sketch 39.1 (31720) - http://www.bohemiancoding.com/sketch -->
    <title>Group 5</title>
    <desc>Created with Sketch.</desc>
    <defs></defs>
    <g id="Page-1" stroke="none" stroke-width="1" fill="none" fill-rule="evenodd">
        <g id="Travel-Admin-List-view" transform="translate(-759.000000, -345.000000)">
            <g id="Travel-Request-Aapproval-details" transform="translate(66.000000, 172.000000)">
                <g id="listing-copy" transform="translate(0.000000, 71.000000)">
                    <g id="listing1" transform="translate(1.000000, 60.000000)">
                        <g id="Group-5" transform="translate(692.000000, 42.000000)">
                            <circle id="Oval" fill="#D8D8D8" cx="13" cy="13" r="13"></circle>
                            <g id="round-trip" transform="translate(5.000000, 6.000000)" fill="#494342">
                                <g id="refresh-button">
                                    <g id="Group">
                                        <path d="M15,3 L11,0 L11,2 L4.997,2 C2.237,2 0,4.244 0,7 C0,7.838 0.206,8.628 0.571,9.321 L2.206,8.095 C2.073,7.756 2,7.387 2,7 C2,5.347 3.342,4 4.997,4 L11,4 L11,6 L15,3 L15,3 Z" id="Shape"></path>
                                        <path d="M13.794,5.904 C13.927,6.244 14,6.613 14,7 C14,8.653 12.658,10 11.003,10 L5,10 L5,8 L1,11 L5,14 L5,12 L11.003,12 C13.763,12 16,9.756 16,7 C16,6.162 15.794,5.372 15.429,4.679 L13.794,5.904 L13.794,5.904 Z" id="Shape"></path>
                                    </g>
                                </g>
                            </g>
                        </g>
                    </g>
                </g>
            </g>
        </g>
    </g>
</svg>