<?xml version="1.0" encoding="UTF-8"?>
<svg width="100px" height="100px" viewBox="0 0 100 100" version="1.1" xmlns="http://www.w3.org/2000/svg" xmlns:xlink="http://www.w3.org/1999/xlink">
    <!-- Generator: sketchtool 40.3 (33839) - http://www.bohemiancoding.com/sketch -->
    <title>E0B47E3C-27D6-4150-B54C-A8AD142AFDDD</title>
    <desc>Created with sketchtool.</desc>
    <defs></defs>
    <g id="Page-1" stroke="none" stroke-width="1" fill="none" fill-rule="evenodd">
        <g id="Vibrant-Web" transform="translate(-1214.000000, -749.000000)">
            <g id="Logo" transform="translate(1214.000000, 736.000000)">
                <g id="Group-3" transform="translate(0.000000, 13.000000)">
                    <path d="M27.994268,24.1014278 L38.2248407,24.1014278 L61.3538299,24.1014278 L75.4891259,24.1014278 L75.4891259,38.2417658 L75.4891259,61.3757142 L75.4891259,71.6132267 L93.8745506,90.0052093 C97.4371584,85.5923181 99.5786705,79.9881767 99.5786705,73.9068771 L99.5786705,25.7073122 L99.5786705,0.00329074656 C99.5786705,0.00329074656 80.9498175,0 73.8805246,0 L25.6981459,0 C19.6190146,0 14.020161,2.14556676 9.60884334,5.70944529 L27.994268,24.1014278 Z" id="Fill-156" fill="#F15A24"></path>
                    <path d="M71.2126808,75.5150649 L61.3538299,75.5150649 L42.4223361,75.5150649 L23.6290043,75.2123162 L24.0895446,52.1606366 L24.0895446,38.2407786 L24.0895446,28.3751204 L5.53964128,9.82189127 C2.07901027,14.2018749 0,19.7204569 0,25.7063249 L0,73.9091806 C0,88.0462278 11.5628498,99.6164928 25.6981459,99.6164928 L73.8805246,99.6164928 C79.8642583,99.6164928 85.3841621,97.5367409 89.7625841,94.0715848 L71.2126808,75.5150649 Z" id="Fill-158" fill="#2D81AF"></path>
                </g>
            </g>
        </g>
    </g>
</svg>