<?xml version="1.0" encoding="UTF-8" standalone="no"?>
<svg width="28px" height="28px" viewBox="0 0 28 28" version="1.1" xmlns="http://www.w3.org/2000/svg" xmlns:xlink="http://www.w3.org/1999/xlink">
    <!-- Generator: Sketch 39.1 (31720) - http://www.bohemiancoding.com/sketch -->
    <title>Trip Extension</title>
    <desc>Created with Sketch.</desc>
    <defs></defs>
    <g id="Page-1" stroke="none" stroke-width="1" fill="none" fill-rule="evenodd">
        <g id="Travel-Admin-List-view" transform="translate(-1293.000000, -452.000000)">
            <g id="Travel-Request-Aapproval-details" transform="translate(66.000000, 172.000000)">
                <g id="listing-copy" transform="translate(0.000000, 71.000000)">
                    <g id="listing2" transform="translate(0.000000, 170.000000)">
                        <g id="Trip-Extension" transform="translate(1227.000000, 39.000000)">
                            <g id="Group">
                                <path d="M20.0403978,13.9150618 C19.9146811,13.4361409 19.4178008,13.1487884 18.93888,13.2804917 L15.760043,14.1305761 L11.6293509,10.28125 L10.4739544,10.586562 L12.9523696,14.8788899 L9.97707402,15.6750958 L8.79773149,14.7531732 L7.9296875,14.9866471 L9.01923238,16.8783844 L9.48019367,17.6745902 L10.4380353,17.4171703 L13.6168723,16.5670858 L16.2210043,15.8726506 L19.3998412,15.0225662 C19.8847486,14.8848764 20.1661146,14.3939826 20.0403978,13.9150618 L20.0403978,13.9150618 Z" id="Shape" fill="#4D4E50"></path>
                                <path d="M27.9263359,27.8053672 C27.9304375,27.7992422 27.9339922,27.7928438 27.9377656,27.7866094 C27.9413203,27.7806484 27.9450391,27.7748516 27.9483203,27.7687266 C27.9518203,27.7622187 27.9547734,27.7554922 27.9578906,27.7488203 C27.9608438,27.7425313 27.9639609,27.7364063 27.9666406,27.7299531 C27.9693203,27.7233906 27.9715625,27.7167187 27.9739141,27.7101016 C27.976375,27.7032656 27.979,27.6965391 27.9810781,27.6895938 C27.9831016,27.6828672 27.9845781,27.6760859 27.9862734,27.6693594 C27.9880781,27.6623047 27.9900469,27.6553047 27.9914688,27.6480859 C27.9930547,27.6401563 27.9939844,27.6321719 27.9951328,27.6241875 C27.9960078,27.6180625 27.9971563,27.6119922 27.9978125,27.6057578 C27.9992344,27.5913203 28,27.5768828 28,27.5623906 L28,23.1875 C28,22.9458906 27.8041094,22.75 27.5625,22.75 C27.3208906,22.75 27.125,22.9458906 27.125,23.1875 L27.125,26.5063203 L22.6558281,22.0371484 C24.6943594,19.8456016 25.8125,17.0089063 25.8125,14 C25.8125,10.9910938 24.6943594,8.15439844 22.6558281,5.96290625 L27.125,1.49367969 L27.125,4.8125 C27.125,5.05410938 27.3208906,5.25 27.5625,5.25 C27.8041094,5.25 28,5.05410938 28,4.8125 L28,0.437609375 C28,0.423117188 27.9992344,0.408679688 27.9978125,0.394242188 C27.9972109,0.388007813 27.9960078,0.3819375 27.9951328,0.3758125 C27.9939844,0.367828125 27.9930547,0.35984375 27.9914688,0.351914063 C27.9900469,0.344695313 27.9880781,0.337695313 27.9862734,0.330640625 C27.9845781,0.323859375 27.9831016,0.317078125 27.9810781,0.31040625 C27.9789453,0.303460938 27.9763203,0.296734375 27.9739141,0.289898438 C27.9715625,0.28328125 27.969375,0.276554688 27.9666406,0.270046875 C27.9639609,0.26359375 27.9608438,0.25746875 27.9578906,0.251179688 C27.9547734,0.244507813 27.9518203,0.23778125 27.9483203,0.231273438 C27.9450391,0.225148438 27.9413203,0.219351563 27.9377656,0.213390625 C27.9339922,0.207101563 27.9304375,0.200757813 27.9263359,0.194632813 C27.9218516,0.187960938 27.916875,0.181671875 27.9120625,0.17521875 C27.9082891,0.170242188 27.9048438,0.165101563 27.9008516,0.160234375 C27.8825313,0.137921875 27.8620781,0.117414063 27.8397109,0.09909375 C27.8348438,0.0951015625 27.8297031,0.09165625 27.8247266,0.0878828125 C27.8183281,0.0830703125 27.8119844,0.07809375 27.8053125,0.073609375 C27.7991875,0.0695078125 27.7928438,0.065953125 27.7866094,0.062234375 C27.7806484,0.0586796875 27.7747969,0.05490625 27.7686719,0.051625 C27.7621641,0.0481796875 27.7554375,0.045171875 27.7488203,0.0420546875 C27.7425313,0.0391015625 27.7363516,0.0359296875 27.7298984,0.03325 C27.7233359,0.0305703125 27.7166641,0.0283828125 27.7100469,0.0259765625 C27.7032109,0.023515625 27.6964844,0.020890625 27.6895391,0.0188125 C27.6828672,0.0167890625 27.6760313,0.0153125 27.66925,0.0136171875 C27.6621953,0.0118671875 27.6551953,0.00984375 27.6479766,0.008421875 C27.6401016,0.0068359375 27.6321172,0.00590625 27.6241875,0.0048125 C27.6180078,0.0039375 27.6119375,0.002734375 27.6057031,0.0021328125 C27.5913203,0.000765625 27.5768281,0 27.5623359,0 L23.1875,0 C22.9458906,0 22.75,0.195890625 22.75,0.4375 C22.75,0.679109375 22.9458906,0.875 23.1875,0.875 L26.5063203,0.875 L22.0371484,5.34417188 C19.8456016,3.30564063 17.0089609,2.1875 14,2.1875 C10.9910391,2.1875 8.15439844,3.30564063 5.96285156,5.34417188 L1.49367969,0.875 L4.8125,0.875 C5.05410938,0.875 5.25,0.679109375 5.25,0.4375 C5.25,0.195890625 5.05410938,0 4.8125,0 L0.437664063,0 C0.423171875,0 0.408679688,0.000765625 0.394242188,0.0021875 C0.388007813,0.0027890625 0.3819375,0.0039921875 0.375757813,0.0048671875 C0.367828125,0.0059609375 0.35984375,0.006890625 0.35196875,0.0084765625 C0.34475,0.0098984375 0.337804688,0.011921875 0.330695313,0.013671875 C0.32396875,0.0153671875 0.317132813,0.01684375 0.310460938,0.0188671875 C0.303460938,0.021 0.296734375,0.023625 0.289898438,0.0260859375 C0.28328125,0.0284375 0.276609375,0.030625 0.270046875,0.0333046875 C0.26359375,0.035984375 0.257414063,0.03915625 0.251125,0.042109375 C0.244507813,0.0452265625 0.237835938,0.0481796875 0.231273438,0.0516796875 C0.225148438,0.0549609375 0.219296875,0.0586796875 0.213335938,0.0622890625 C0.207101563,0.0660078125 0.200757813,0.0695625 0.194632813,0.0736640625 C0.187960938,0.0781484375 0.181617188,0.083125 0.17521875,0.0879375 C0.170242188,0.09165625 0.165101563,0.09515625 0.160234375,0.0991484375 C0.137921875,0.117414062 0.117414063,0.137921875 0.0991484375,0.160234375 C0.0951015625,0.165101563 0.09165625,0.170242188 0.0879375,0.17521875 C0.0830703125,0.181671875 0.0781484375,0.187960938 0.0736640625,0.194632813 C0.0695625,0.200757813 0.0660078125,0.20715625 0.062234375,0.213390625 C0.0586796875,0.219351563 0.0549609375,0.225203125 0.0516796875,0.231273438 C0.0481796875,0.23778125 0.04528125,0.244507813 0.042109375,0.251125 C0.03915625,0.257414063 0.035984375,0.26359375 0.0333046875,0.270046875 C0.030625,0.276609375 0.0284921875,0.283226563 0.0260859375,0.289789063 C0.023625,0.296625 0.021,0.303460938 0.0188671875,0.310460938 C0.01684375,0.317132813 0.0153671875,0.323914063 0.013671875,0.330695313 C0.011921875,0.33775 0.0098984375,0.34475 0.0084765625,0.35196875 C0.006890625,0.359898438 0.0059609375,0.367882813 0.0048671875,0.375867188 C0.0039921875,0.381992188 0.0027890625,0.388007813 0.0021875,0.394242188 C0.000765625,0.408679688 0,0.423171875 0,0.437609375 L0,4.8125 C0,5.05410938 0.195890625,5.25 0.4375,5.25 C0.679109375,5.25 0.875,5.05410938 0.875,4.8125 L0.875,1.49367969 L5.34417188,5.96285156 C3.30564063,8.15439844 2.1875,10.9910938 2.1875,14 C2.1875,17.0089063 3.30564063,19.8456016 5.34417188,22.0370938 L0.875,26.5063203 L0.875,23.1875 C0.875,22.9458906 0.679109375,22.75 0.4375,22.75 C0.195890625,22.75 0,22.9458906 0,23.1875 L0,27.5623906 C0,27.5768828 0.000765625,27.5913203 0.0021875,27.6057578 C0.0027890625,27.6119922 0.0039921875,27.6180625 0.0048671875,27.6241875 C0.006015625,27.6321719 0.0069453125,27.6401563 0.00853125,27.6480859 C0.009953125,27.6553047 0.011921875,27.6623047 0.0137265625,27.6693594 C0.015421875,27.6761406 0.0168984375,27.6829219 0.018921875,27.6895938 C0.0210546875,27.6965938 0.0236796875,27.703375 0.026140625,27.7102656 C0.0284921875,27.7168828 0.0306796875,27.7235 0.033359375,27.7300078 C0.0360390625,27.7364609 0.0392109375,27.7426406 0.0421640625,27.7489844 C0.04528125,27.7556016 0.048234375,27.7623281 0.051734375,27.7687813 C0.055015625,27.7749063 0.058734375,27.7807031 0.0622890625,27.7866641 C0.0660625,27.7929531 0.0696171875,27.7992969 0.07371875,27.8054219 C0.078203125,27.8120938 0.0831796875,27.8183828 0.0879921875,27.8248359 C0.091765625,27.8298125 0.0952109375,27.8349531 0.099203125,27.8398203 C0.117523438,27.8621328 0.137976563,27.8826406 0.16034375,27.9009609 C0.165210938,27.9049531 0.170351563,27.9083984 0.175328125,27.9121719 C0.181726563,27.9169844 0.188070313,27.9219609 0.194742188,27.9264453 C0.200867188,27.9305469 0.207210938,27.9341016 0.213445313,27.9378203 C0.21940625,27.941375 0.225257813,27.9451484 0.231382813,27.9484297 C0.237835938,27.951875 0.244507813,27.9548281 0.251070313,27.9578906 C0.257414063,27.9608984 0.263703125,27.9640703 0.270210938,27.9668047 C0.276609375,27.9694297 0.283117188,27.9715625 0.289570313,27.9738594 C0.296570313,27.976375 0.303460938,27.9790547 0.310570313,27.9811875 C0.317132813,27.9831563 0.32375,27.9846328 0.330367188,27.9862734 C0.337585938,27.9880781 0.344695313,27.9901016 0.352078125,27.9915781 C0.359734375,27.9931094 0.3675,27.9939844 0.375265625,27.9951328 C0.381664063,27.9960625 0.387953125,27.9972656 0.394460938,27.9978672 C0.408679688,27.9992344 0.423117188,28 0.4375,28 L4.8125,28 C5.05410938,28 5.25,27.8041094 5.25,27.5625 C5.25,27.3208906 5.05410938,27.125 4.8125,27.125 L1.49367969,27.125 L5.96285156,22.6558281 C8.15439844,24.6943594 10.9910391,25.8125 14,25.8125 C17.0089609,25.8125 19.8456016,24.6943594 22.0371484,22.6558281 L26.5063203,27.125 L23.1875,27.125 C22.9458906,27.125 22.75,27.3208906 22.75,27.5625 C22.75,27.8041094 22.9458906,28 23.1875,28 L27.5625,28 C27.5768828,28 27.5913203,27.9992344 27.6056484,27.9978125 C27.6121563,27.9972109 27.6184453,27.9959531 27.6248438,27.9950781 C27.6325547,27.9939297 27.6403203,27.9930547 27.6480313,27.9915234 C27.6553594,27.9901016 27.6625234,27.9880781 27.6697422,27.9862188 C27.6763594,27.9845781 27.6829766,27.9831016 27.6895391,27.9811328 C27.6967031,27.9789453 27.7035938,27.9763203 27.7105391,27.9738047 C27.7169922,27.9715078 27.7235547,27.9693203 27.7298984,27.96675 C27.7364063,27.9640156 27.7426953,27.9608437 27.7490391,27.9578359 C27.7556016,27.9547187 27.7622734,27.9518203 27.7687266,27.948375 C27.7748516,27.9450937 27.7807031,27.941375 27.7866641,27.9377656 C27.7929531,27.9340469 27.7992969,27.9304922 27.8053672,27.9263906 C27.8120391,27.9219062 27.8183828,27.9169297 27.8247813,27.9121172 C27.8297578,27.9083984 27.8348984,27.9048984 27.8397656,27.9009062 C27.8620781,27.8825859 27.8825859,27.8621328 27.9009063,27.8397656 C27.9048984,27.8348984 27.9083438,27.8297578 27.9121172,27.8247812 C27.9169297,27.8183281 27.9218516,27.8120391 27.9263359,27.8053672 L27.9263359,27.8053672 Z M14,24.9375 C7.9690625,24.9375 3.0625,20.0309375 3.0625,14 C3.0625,7.9690625 7.9690625,3.0625 14,3.0625 C20.0309375,3.0625 24.9375,7.9690625 24.9375,14 C24.9375,20.0309375 20.0309375,24.9375 14,24.9375 L14,24.9375 Z" id="Shape" fill="#4D4E50"></path>
                                <path d="M20.7203281,7.73516406 C20.8064609,7.82753125 20.9232734,7.87423438 21.0403594,7.87423438 C21.1472187,7.87423438 21.2543516,7.83535156 21.3386797,7.75671094 C21.515375,7.59188281 21.525,7.31505469 21.3602266,7.13835938 C21.2003203,6.96691406 21.0324297,6.79902344 20.8612031,6.63933594 C20.6843984,6.4745625 20.407625,6.48424219 20.2428516,6.6609375 C20.0780781,6.83763281 20.0877578,7.11451563 20.2644531,7.27928906 C20.4208594,7.42514063 20.5742578,7.57853906 20.7203281,7.73516406 L20.7203281,7.73516406 Z" id="Shape" fill="#000000"></path>
                            </g>
                        </g>
                    </g>
                </g>
            </g>
        </g>
    </g>
</svg>