<?xml version="1.0" encoding="UTF-8" standalone="no"?>
<svg width="66px" height="66px" viewBox="0 0 66 66" version="1.1" xmlns="http://www.w3.org/2000/svg" xmlns:xlink="http://www.w3.org/1999/xlink">
    <!-- Generator: Sketch 39.1 (31720) - http://www.bohemiancoding.com/sketch -->
    <title>Trip Extension</title>
    <desc>Created with Sketch.</desc>
    <defs></defs>
    <g id="Page-1" stroke="none" stroke-width="1" fill="none" fill-rule="evenodd">
        <g id="Travel-User-Additonal-Info-with-expand-view" transform="translate(-1283.000000, -314.000000)" fill="#C31306">
            <g id="listing" transform="translate(67.000000, 213.000000)">
                <g id="listing1" transform="translate(0.000000, 60.000000)">
                    <g id="Trip-Extension" transform="translate(1216.000000, 41.000000)">
                        <path d="M47.2380806,32.7997884 C46.9417484,31.6709036 45.7705304,30.9935727 44.6416456,31.3040161 L37.1486727,33.3077866 L27.4120413,24.234375 L24.6886068,24.9540391 L30.5305856,35.0716691 L23.5173888,36.9484401 L20.73751,34.7753368 L18.6914062,35.3256682 L21.2596192,39.7847631 L22.3461708,41.6615341 L24.6039404,41.0547585 L32.0969133,39.050988 L38.2352244,37.414105 L45.7281972,35.4103345 C46.8711931,35.0857801 47.5344129,33.9286732 47.2380806,32.7997884 L47.2380806,32.7997884 Z" id="Shape"></path>
                        <path d="M65.8263633,65.5412227 C65.8360313,65.5267852 65.8444102,65.5117031 65.8533047,65.4970078 C65.8616836,65.482957 65.8704492,65.469293 65.8781836,65.4548555 C65.8864336,65.4395156 65.8933945,65.4236602 65.9007422,65.4079336 C65.9077031,65.3931094 65.9150508,65.3786719 65.9213672,65.3634609 C65.9276836,65.3479922 65.9329688,65.3322656 65.9385117,65.316668 C65.9443125,65.3005547 65.9505,65.2846992 65.9553984,65.2683281 C65.960168,65.2524727 65.9636484,65.2364883 65.9676445,65.2206328 C65.9718984,65.2040039 65.9765391,65.1875039 65.9798906,65.1704883 C65.9836289,65.1517969 65.9858203,65.1329766 65.9885273,65.1141563 C65.9905898,65.0997188 65.9932969,65.0854102 65.9948438,65.0707148 C65.9981953,65.0366836 66,65.0026523 66,64.9684922 L66,54.65625 C66,54.0867422 65.5382578,53.625 64.96875,53.625 C64.3992422,53.625 63.9375,54.0867422 63.9375,54.65625 L63.9375,62.4791836 L53.4030234,51.944707 C58.2081328,46.778918 60.84375,40.0924219 60.84375,33 C60.84375,25.9075781 58.2081328,19.221082 53.4030234,14.0554219 L63.9375,3.52081641 L63.9375,11.34375 C63.9375,11.9132578 64.3992422,12.375 64.96875,12.375 C65.5382578,12.375 66,11.9132578 66,11.34375 L66,1.03150781 C66,0.997347656 65.9981953,0.963316406 65.9948438,0.929285156 C65.9934258,0.914589844 65.9905898,0.90028125 65.9885273,0.88584375 C65.9858203,0.867023438 65.9836289,0.848203125 65.9798906,0.829511719 C65.9765391,0.812496094 65.9718984,0.795996094 65.9676445,0.779367188 C65.9636484,0.763382813 65.960168,0.747398438 65.9553984,0.731671875 C65.9503711,0.715300781 65.9441836,0.699445313 65.9385117,0.683332031 C65.9329688,0.667734375 65.9278125,0.651878906 65.9213672,0.636539063 C65.9150508,0.621328125 65.9077031,0.606890625 65.9007422,0.592066406 C65.8933945,0.576339844 65.8864336,0.560484375 65.8781836,0.545144531 C65.8704492,0.530707031 65.8616836,0.517042969 65.8533047,0.502992188 C65.8444102,0.488167969 65.8360313,0.473214844 65.8263633,0.458777344 C65.815793,0.443050781 65.8040625,0.428226563 65.7927188,0.413015625 C65.7838242,0.401285156 65.7757031,0.389167969 65.766293,0.377695313 C65.7231094,0.325101563 65.6748984,0.276761719 65.6221758,0.233578125 C65.6107031,0.224167969 65.5985859,0.216046875 65.5868555,0.207152344 C65.5717734,0.195808594 65.5568203,0.184078125 65.5410938,0.173507813 C65.5266563,0.163839844 65.5117031,0.155460938 65.4970078,0.146695313 C65.482957,0.138316406 65.4691641,0.129421875 65.4547266,0.1216875 C65.4393867,0.113566406 65.4235313,0.106476563 65.4079336,0.0991289063 C65.3931094,0.0921679688 65.378543,0.0846914063 65.363332,0.078375 C65.3478633,0.0720585938 65.3321367,0.0669023438 65.3165391,0.0612304688 C65.3004258,0.0554296875 65.2845703,0.0492421875 65.2681992,0.04434375 C65.2524727,0.0395742188 65.2363594,0.03609375 65.220375,0.0320976563 C65.2037461,0.0279726563 65.1872461,0.023203125 65.1702305,0.0198515625 C65.151668,0.0161132813 65.1328477,0.013921875 65.1141563,0.01134375 C65.0995898,0.00928125 65.0852813,0.0064453125 65.0705859,0.00502734375 C65.0366836,0.0018046875 65.0025234,0 64.9683633,0 L54.65625,0 C54.0867422,0 53.625,0.461742188 53.625,1.03125 C53.625,1.60075781 54.0867422,2.0625 54.65625,2.0625 L62.4791836,2.0625 L51.944707,12.5969766 C46.778918,7.79186719 40.0925508,5.15625 33,5.15625 C25.9074492,5.15625 19.221082,7.79186719 14.055293,12.5969766 L3.52081641,2.0625 L11.34375,2.0625 C11.9132578,2.0625 12.375,1.60075781 12.375,1.03125 C12.375,0.461742188 11.9132578,0 11.34375,0 L1.03163672,0 C0.997476563,0 0.963316406,0.0018046875 0.929285156,0.00515625 C0.914589844,0.00657421875 0.90028125,0.00941015625 0.885714844,0.0114726563 C0.867023438,0.0140507813 0.848203125,0.0162421875 0.829640625,0.0199804688 C0.812625,0.0233320313 0.796253906,0.0281015625 0.779496094,0.0322265625 C0.763640625,0.0362226563 0.747527344,0.039703125 0.731800781,0.0444726563 C0.715300781,0.0495 0.699445313,0.0556875 0.683332031,0.0614882813 C0.667734375,0.06703125 0.652007813,0.0721875 0.636539063,0.0785039063 C0.621328125,0.0848203125 0.606761719,0.092296875 0.5919375,0.0992578125 C0.576339844,0.106605469 0.560613281,0.113566406 0.545144531,0.121816406 C0.530707031,0.129550781 0.516914063,0.138316406 0.502863281,0.146824219 C0.488167969,0.155589844 0.473214844,0.16396875 0.458777344,0.173636719 C0.443050781,0.184207031 0.428097656,0.1959375 0.413015625,0.20728125 C0.401285156,0.216046875 0.389167969,0.224296875 0.377695313,0.233707031 C0.325101563,0.276761719 0.276761719,0.325101563 0.233707031,0.377695313 C0.224167969,0.389167969 0.216046875,0.401285156 0.20728125,0.413015625 C0.195808594,0.428226563 0.184207031,0.443050781 0.173636719,0.458777344 C0.16396875,0.473214844 0.155589844,0.488296875 0.146695313,0.502992188 C0.138316406,0.517042969 0.129550781,0.530835938 0.121816406,0.545144531 C0.113566406,0.560484375 0.106734375,0.576339844 0.0992578125,0.5919375 C0.092296875,0.606761719 0.0848203125,0.621328125 0.0785039063,0.636539063 C0.0721875,0.652007813 0.0671601563,0.667605469 0.0614882813,0.683074219 C0.0556875,0.6991875 0.0495,0.715300781 0.0444726563,0.731800781 C0.039703125,0.747527344 0.0362226563,0.763511719 0.0322265625,0.779496094 C0.0281015625,0.796125 0.0233320313,0.812625 0.0199804688,0.829640625 C0.0162421875,0.848332031 0.0140507813,0.867152344 0.0114726563,0.885972656 C0.00941015625,0.900410156 0.00657421875,0.914589844 0.00515625,0.929285156 C0.0018046875,0.963316406 0,0.997476563 0,1.03150781 L0,11.34375 C0,11.9132578 0.461742188,12.375 1.03125,12.375 C1.60075781,12.375 2.0625,11.9132578 2.0625,11.34375 L2.0625,3.52081641 L12.5969766,14.055293 C7.79186719,19.221082 5.15625,25.9075781 5.15625,33 C5.15625,40.0924219 7.79186719,46.778918 12.5969766,51.9445781 L2.0625,62.4791836 L2.0625,54.65625 C2.0625,54.0867422 1.60075781,53.625 1.03125,53.625 C0.461742188,53.625 0,54.0867422 0,54.65625 L0,64.9684922 C0,65.0026523 0.0018046875,65.0366836 0.00515625,65.0707148 C0.00657421875,65.0854102 0.00941015625,65.0997188 0.0114726563,65.1141563 C0.0141796875,65.1329766 0.0163710938,65.1517969 0.020109375,65.1704883 C0.0234609375,65.1875039 0.0281015625,65.2040039 0.0323554688,65.2206328 C0.0363515625,65.2366172 0.0398320313,65.2526016 0.0446015625,65.2683281 C0.0496289063,65.2848281 0.0558164063,65.3008125 0.0616171875,65.3170547 C0.0671601563,65.3326523 0.0723164063,65.34825 0.0786328125,65.3635898 C0.0849492188,65.3788008 0.0924257813,65.3933672 0.0993867188,65.4083203 C0.106734375,65.423918 0.113695313,65.4397734 0.121945313,65.4549844 C0.129679688,65.4694219 0.138445313,65.4830859 0.146824219,65.4971367 C0.15571875,65.5119609 0.164097656,65.5269141 0.173765625,65.5413516 C0.184335938,65.5570781 0.196066406,65.5719023 0.207410156,65.5871133 C0.216304688,65.5988438 0.224425781,65.6109609 0.233835938,65.6224336 C0.277019531,65.6750273 0.325230469,65.7233672 0.377953125,65.7665508 C0.389425781,65.7759609 0.401542969,65.784082 0.413273438,65.7929766 C0.428355469,65.8043203 0.443308594,65.8160508 0.459035156,65.8266211 C0.473472656,65.8362891 0.488425781,65.844668 0.503121094,65.8534336 C0.517171875,65.8618125 0.530964844,65.870707 0.545402344,65.8784414 C0.560613281,65.8865625 0.576339844,65.8935234 0.591808594,65.9007422 C0.606761719,65.907832 0.621585938,65.9153086 0.636925781,65.9217539 C0.652007813,65.9279414 0.667347656,65.9329688 0.682558594,65.9383828 C0.699058594,65.9443125 0.715300781,65.9506289 0.732058594,65.9556563 C0.747527344,65.9602969 0.763125,65.9637773 0.778722656,65.9676445 C0.795738281,65.9718984 0.812496094,65.976668 0.829898438,65.9801484 C0.847945313,65.9837578 0.86625,65.9858203 0.884554688,65.9885273 C0.899636719,65.9907188 0.914460938,65.9935547 0.929800781,65.9949727 C0.963316406,65.9981953 0.997347656,66 1.03125,66 L11.34375,66 C11.9132578,66 12.375,65.5382578 12.375,64.96875 C12.375,64.3992422 11.9132578,63.9375 11.34375,63.9375 L3.52081641,63.9375 L14.055293,53.4030234 C19.221082,58.2081328 25.9074492,60.84375 33,60.84375 C40.0925508,60.84375 46.778918,58.2081328 51.944707,53.4030234 L62.4791836,63.9375 L54.65625,63.9375 C54.0867422,63.9375 53.625,64.3992422 53.625,64.96875 C53.625,65.5382578 54.0867422,66 54.65625,66 L64.96875,66 C65.0026523,66 65.0366836,65.9981953 65.070457,65.9948438 C65.0857969,65.9934258 65.1006211,65.9904609 65.1157031,65.9883984 C65.1338789,65.9856914 65.1521836,65.9836289 65.1703594,65.9800195 C65.1876328,65.976668 65.2045195,65.9718984 65.2215352,65.9675156 C65.2371328,65.9636484 65.2527305,65.960168 65.2681992,65.9555273 C65.2850859,65.9503711 65.3013281,65.9441836 65.3176992,65.9382539 C65.3329102,65.9328398 65.3483789,65.9276836 65.363332,65.921625 C65.3786719,65.9151797 65.3934961,65.9077031 65.4084492,65.9006133 C65.423918,65.8932656 65.4396445,65.8864336 65.4548555,65.8783125 C65.469293,65.8705781 65.4830859,65.8618125 65.4971367,65.8533047 C65.5119609,65.8445391 65.5269141,65.8361602 65.5412227,65.8264922 C65.5569492,65.8159219 65.5719023,65.8041914 65.5869844,65.7928477 C65.5987148,65.784082 65.610832,65.775832 65.6223047,65.7664219 C65.6748984,65.7232383 65.7232383,65.6750273 65.7664219,65.6223047 C65.775832,65.610832 65.7839531,65.5987148 65.7928477,65.5869844 C65.8041914,65.5717734 65.815793,65.5569492 65.8263633,65.5412227 L65.8263633,65.5412227 Z M33,58.78125 C18.7842188,58.78125 7.21875,47.2157812 7.21875,33 C7.21875,18.7842188 18.7842188,7.21875 33,7.21875 C47.2157812,7.21875 58.78125,18.7842188 58.78125,33 C58.78125,47.2157812 47.2157812,58.78125 33,58.78125 L33,58.78125 Z" id="Shape"></path>
                    </g>
                </g>
            </g>
        </g>
    </g>
</svg>