<?xml version="1.0" encoding="UTF-8" standalone="no"?>
<svg width="349px" height="359px" viewBox="0 0 349 359" version="1.1" xmlns="http://www.w3.org/2000/svg" xmlns:xlink="http://www.w3.org/1999/xlink">
    <!-- Generator: Sketch 39.1 (31720) - http://www.bohemiancoding.com/sketch -->
    <title>Group</title>
    <desc>Created with Sketch.</desc>
    <defs></defs>
    <g id="Page-1" stroke="none" stroke-width="1" fill="none" fill-rule="evenodd">
        <g id="View-Icon" transform="translate(-86.000000, -79.000000)">
            <g id="Group" transform="translate(86.000000, 79.000000)">
                <path d="M10,338.001371 C10,343.51994 14.4772713,348 19.9913628,348 L253.008637,348 C258.527881,348 263,343.526137 263,338.002993 L263,87.359375 L265.902641,94.4040532 L179.191703,7.04467817 L186.289062,10 L20.0024932,10 C14.476845,10 10,14.4762456 10,19.9986294 L10,338.001371 Z M20.0024932,0 L186.289062,0 L273,87.359375 L273,338.002993 C273,349.047035 264.052678,358 253.008637,358 L19.9913628,358 C8.95043801,358 0,349.038801 0,338.001371 L0,19.9986294 C0,8.95369136 8.95370416,0 20.0024932,0 Z" id="Combined-Shape" fill="#4D4E50"></path>
                <path d="M195.007073,88.1835566 C189.488845,88.1835566 185.015437,83.7014112 185.015437,78.1919211 L185.015437,2 L271.198994,88.1835566 L195.007073,88.1835566 Z" id="Triangle" fill="#4D4E50"></path>
                <circle id="Oval" fill="#4D4E50" cx="268.345703" cy="278.345703" r="80.3457031"></circle>
                <ellipse id="Oval" fill="#FFFFFF" cx="268.339442" cy="278.339442" rx="69.3394424" ry="69.3394424"></ellipse>
                <path d="M322.026398,275.867446 C321.800438,275.581309 316.376158,268.779442 307.076726,261.950137 C294.650118,252.8239 281.128753,248 267.974512,248 C254.820761,248 241.299396,252.8239 228.872298,261.950137 C219.573112,268.779197 214.148832,275.581309 213.922626,275.867446 L212,278.298137 L213.922871,280.729072 C214.149077,281.015209 219.573357,287.817321 228.872543,294.646627 C241.299641,303.772618 254.821007,308.596518 267.974757,308.596518 C281.128753,308.596518 294.650118,303.772618 307.076726,294.646627 C316.376158,287.817321 321.800438,281.015209 322.026398,280.729072 L323.949759,278.298137 L322.026398,275.867446 L322.026398,275.867446 Z M267.974512,299.523687 C256.266223,299.523687 246.740586,290.002052 246.740586,278.298137 C246.740586,276.464462 246.974389,274.684438 247.413812,272.985992 L242.565952,272.170454 C242.090993,274.136418 241.839055,276.188369 241.839055,278.298137 C241.839055,285.858217 245.069654,292.677478 250.221654,297.452382 C243.589637,295.003562 237.950179,291.567229 233.693934,288.459414 C228.420867,284.609554 224.469007,280.715843 222.216018,278.298137 C224.469987,275.879695 228.421357,271.986474 233.693934,268.136859 C237.950179,265.029044 243.589882,261.592711 250.221654,259.143647 L253.473821,262.808056 C257.272018,259.252908 262.373042,257.072586 267.974512,257.072586 C279.682801,257.072586 289.208193,266.594221 289.208193,278.298137 C289.208193,290.002052 279.682801,299.523687 267.974512,299.523687 L267.974512,299.523687 Z M302.25509,288.459414 C297.998354,291.567229 292.359142,295.003562 285.72737,297.452382 C290.879125,292.677723 294.109724,285.858462 294.109724,278.297892 C294.109724,270.737321 290.879125,263.918305 285.72737,259.143402 C292.359387,261.592466 297.998354,265.028799 302.25509,268.136614 C307.528158,271.986474 311.480018,275.880185 313.733007,278.297647 C311.479037,280.716578 307.527667,284.610044 302.25509,288.459414 L302.25509,288.459414 Z" id="Shape" fill="#4D4E50"></path>
                <path d="M254.614407,273.994936 C254.215912,275.300434 254,276.685305 254,278.121133 C254,285.919823 260.324691,292.242265 268.126705,292.242265 C275.928473,292.242265 282.253164,285.920068 282.253164,278.121133 C282.253164,270.322197 275.928473,264 268.126705,264 C264.326547,264 260.879545,265.502707 258.340306,267.942707 L265.308324,275.793823 L254.614407,273.994936 L254.614407,273.994936 Z" id="Shape" fill="#4D4E50"></path>
                <rect id="Rectangle-3" fill="#4D4E50" x="42" y="109" width="19" height="16"></rect>
                <rect id="Rectangle-3" fill="#4D4E50" x="42" y="140.5" width="19" height="16"></rect>
                <rect id="Rectangle-3" fill="#4D4E50" x="42" y="172" width="19" height="16"></rect>
                <rect id="Rectangle-3" fill="#4D4E50" x="74" y="109" width="157.710938" height="16"></rect>
                <rect id="Rectangle-3" fill="#4D4E50" x="74" y="140.5" width="157.710938" height="16"></rect>
                <rect id="Rectangle-3" fill="#4D4E50" x="74" y="172" width="157.710938" height="16"></rect>
            </g>
        </g>
    </g>
</svg>